<mxfile host="app.diagrams.net" modified="2022-12-19T09:34:50.099Z" agent="5.0 (Macintosh; Intel Mac OS X 10_15_7) AppleWebKit/537.36 (KHTML, like Gecko) Chrome/108.0.0.0 Safari/537.36" version="20.7.4" etag="FPTEQgsfd7TtDygSMVF6" type="github">
  <diagram id="4bPIOxXS7Ri6mOKR6sBD" name="第 1 页">
    <mxGraphModel dx="1306" dy="836" grid="1" gridSize="10" guides="1" tooltips="1" connect="1" arrows="1" fold="1" page="1" pageScale="1" pageWidth="827" pageHeight="1169" math="0" shadow="0">
      <root>
        <mxCell id="0" />
        <mxCell id="1" parent="0" />
        <mxCell id="NlrVx7OgdfCODWQ9weZM-9" style="edgeStyle=orthogonalEdgeStyle;rounded=0;orthogonalLoop=1;jettySize=auto;html=1;entryX=0;entryY=0.444;entryDx=0;entryDy=0;entryPerimeter=0;" edge="1" parent="1" source="NlrVx7OgdfCODWQ9weZM-1" target="NlrVx7OgdfCODWQ9weZM-2">
          <mxGeometry relative="1" as="geometry" />
        </mxCell>
        <mxCell id="NlrVx7OgdfCODWQ9weZM-1" value="C端用户" style="shape=umlActor;verticalLabelPosition=bottom;verticalAlign=top;html=1;outlineConnect=0;" vertex="1" parent="1">
          <mxGeometry x="70" y="120" width="30" height="60" as="geometry" />
        </mxCell>
        <mxCell id="NlrVx7OgdfCODWQ9weZM-2" value="palmpay app" style="verticalLabelPosition=bottom;verticalAlign=top;html=1;shadow=0;dashed=0;strokeWidth=1;shape=mxgraph.android.phone2;strokeColor=#9933FF;" vertex="1" parent="1">
          <mxGeometry x="210" y="110" width="50" height="90" as="geometry" />
        </mxCell>
        <mxCell id="NlrVx7OgdfCODWQ9weZM-3" value="交易系统" style="rounded=0;whiteSpace=wrap;html=1;strokeColor=#000000;" vertex="1" parent="1">
          <mxGeometry x="354" y="125" width="120" height="60" as="geometry" />
        </mxCell>
        <mxCell id="NlrVx7OgdfCODWQ9weZM-4" value="支付系统" style="rounded=0;whiteSpace=wrap;html=1;strokeColor=#000000;" vertex="1" parent="1">
          <mxGeometry x="540" y="125" width="120" height="60" as="geometry" />
        </mxCell>
        <mxCell id="NlrVx7OgdfCODWQ9weZM-5" value="ng-channel" style="rounded=0;whiteSpace=wrap;html=1;strokeColor=#000000;" vertex="1" parent="1">
          <mxGeometry x="720" y="125" width="120" height="60" as="geometry" />
        </mxCell>
        <mxCell id="NlrVx7OgdfCODWQ9weZM-6" value="支付渠道" style="rounded=0;whiteSpace=wrap;html=1;strokeColor=#000000;verticalAlign=top;" vertex="1" parent="1">
          <mxGeometry x="920" y="20" width="180" height="360" as="geometry" />
        </mxCell>
        <mxCell id="NlrVx7OgdfCODWQ9weZM-8" value="银行" style="rounded=0;whiteSpace=wrap;html=1;strokeColor=#000000;verticalAlign=top;" vertex="1" parent="1">
          <mxGeometry x="1140" y="20" width="200" height="360" as="geometry" />
        </mxCell>
        <mxCell id="NlrVx7OgdfCODWQ9weZM-7" value="Nibss" style="rounded=0;whiteSpace=wrap;html=1;strokeColor=#000000;" vertex="1" parent="1">
          <mxGeometry x="950" y="125" width="120" height="60" as="geometry" />
        </mxCell>
        <mxCell id="NlrVx7OgdfCODWQ9weZM-10" value="银行" style="rounded=0;whiteSpace=wrap;html=1;strokeColor=#000000;verticalAlign=top;" vertex="1" parent="1">
          <mxGeometry x="175" y="400" width="225" height="340" as="geometry" />
        </mxCell>
        <mxCell id="NlrVx7OgdfCODWQ9weZM-11" value="银行" style="rounded=0;whiteSpace=wrap;html=1;strokeColor=#000000;verticalAlign=top;" vertex="1" parent="1">
          <mxGeometry x="520" y="400" width="225" height="340" as="geometry" />
        </mxCell>
        <mxCell id="NlrVx7OgdfCODWQ9weZM-15" style="edgeStyle=orthogonalEdgeStyle;rounded=0;orthogonalLoop=1;jettySize=auto;html=1;entryX=0;entryY=0.5;entryDx=0;entryDy=0;" edge="1" parent="1" source="NlrVx7OgdfCODWQ9weZM-12" target="NlrVx7OgdfCODWQ9weZM-13">
          <mxGeometry relative="1" as="geometry" />
        </mxCell>
        <mxCell id="NlrVx7OgdfCODWQ9weZM-16" value="资金流" style="edgeLabel;html=1;align=center;verticalAlign=middle;resizable=0;points=[];" vertex="1" connectable="0" parent="NlrVx7OgdfCODWQ9weZM-15">
          <mxGeometry x="-0.0826" y="2" relative="1" as="geometry">
            <mxPoint as="offset" />
          </mxGeometry>
        </mxCell>
        <mxCell id="NlrVx7OgdfCODWQ9weZM-12" value="C端用户银行卡" style="image;html=1;image=img/lib/clip_art/finance/Credit_Card_128x128.png;strokeColor=#000000;" vertex="1" parent="1">
          <mxGeometry x="240" y="470" width="80" height="80" as="geometry" />
        </mxCell>
        <mxCell id="NlrVx7OgdfCODWQ9weZM-13" value="palmpay银行账户" style="image;html=1;image=img/lib/clip_art/finance/Credit_Card_128x128.png;strokeColor=#000000;" vertex="1" parent="1">
          <mxGeometry x="592.5" y="470" width="80" height="80" as="geometry" />
        </mxCell>
        <mxCell id="NlrVx7OgdfCODWQ9weZM-14" value="palmpay银行账户" style="image;html=1;image=img/lib/clip_art/finance/Credit_Card_128x128.png;strokeColor=#000000;" vertex="1" parent="1">
          <mxGeometry x="592.5" y="600" width="80" height="80" as="geometry" />
        </mxCell>
      </root>
    </mxGraphModel>
  </diagram>
</mxfile>
